<svg width="117" height="16" viewBox="0 0 117 16" fill="none" xmlns="http://www.w3.org/2000/svg">
<mask id="mask0_2981_90139" style="mask-type:alpha" maskUnits="userSpaceOnUse" x="0" y="0" width="117" height="16">
<g clip-path="url(#clip0_2981_90139)">
<path d="M60.9855 6.99606C60.3343 6.64511 59.5188 6.25963 58.5561 5.83964C58.4768 5.80512 58.3862 5.7591 58.2729 5.71307C57.9728 5.59225 57.7123 5.5002 57.4801 5.40814C56.9817 5.22404 56.6193 5.08596 56.2682 4.88459C56.2455 4.87884 56.2229 4.86158 56.2002 4.85582L56.1719 4.83856C55.5942 4.51638 55.2998 4.29775 55.2771 4.28049C54.9373 3.96406 54.7618 3.6016 54.7618 3.23339C54.7618 2.18053 56.3191 1.22547 58.0237 1.22547C58.1483 1.22547 58.2729 1.23123 58.4201 1.24849C58.4485 1.24849 58.4768 1.25424 58.5051 1.25999H58.5334C59.9888 1.4441 61.1724 2.566 61.5915 3.19311C62.0162 3.82598 62.0445 4.01584 62.0445 4.01584H62.7694V-0.0057373L62.0389 0.0115227C62.0389 0.0115227 61.6198 0.724935 61.4839 0.724935C61.3933 0.724935 61.0195 0.696169 60.6174 0.563842C59.6037 0.230149 58.641 0.0575493 57.7576 0.0575493C55.9793 0.0575493 54.2351 0.523569 53.2044 1.27725C52.1058 2.08272 51.5508 3.10681 51.5508 4.33227C51.5508 5.22979 51.9245 6.08128 52.723 7.00757C53.3517 7.74399 54.6825 8.52069 56.9024 9.45273C58.6184 10.1892 59.649 10.6839 59.9492 10.9198C60.3513 11.2535 60.5495 11.685 60.5495 12.2431C60.5495 12.9277 60.204 13.5721 59.6094 14.0036C59.0544 14.4063 58.2503 14.602 57.1459 14.602C56.1266 14.602 55.1469 14.3028 54.2238 13.7217C53.3743 13.1981 52.9382 12.4099 52.7287 11.9842L52.6777 11.8864C52.6211 11.7771 52.5248 11.5642 52.4399 11.3801C52.4229 11.3226 52.4116 11.2708 52.3833 11.242C52.3833 11.2363 52.3776 11.2248 52.3776 11.219V11.2305C52.321 11.1097 52.287 11.0234 52.287 11.0234L51.5621 11.0406V15.7008H52.2813H52.3096C52.3096 15.7008 52.3436 15.6088 52.4002 15.4822C52.4059 15.4707 52.4172 15.4535 52.4229 15.4419C52.4909 15.3096 52.5815 15.1543 52.6947 15.0392C52.774 14.9759 52.8646 14.9414 52.9779 14.9414C53.0119 14.9472 53.0458 14.9529 53.0855 14.9702C53.6575 15.1428 54.2124 15.2866 54.7391 15.4132C55.9114 15.7239 56.9591 15.9367 57.7349 15.9367C59.4169 15.9367 61.0535 15.4017 62.3447 14.5502C63.5566 13.7505 63.9926 12.5998 64.1456 11.7771C64.1795 11.6332 64.2078 11.4721 64.2305 11.2995C64.6326 8.39987 61.0422 7.00757 61.0082 6.99606H60.9855Z" fill="white"/>
<path d="M33.1356 0.460266H28.741V1.21971C28.8373 1.21971 28.9392 1.21971 29.0581 1.21971C29.6981 1.21971 29.6981 1.49586 29.6981 1.58792C29.6981 1.8123 29.2394 2.65228 28.6051 3.81446C28.3842 4.22869 28.1917 4.59115 28.0218 4.91909C27.4838 5.93743 27.144 6.58181 26.7816 7.15138C26.0227 5.92017 25.5527 5.15498 24.975 4.19417C24.573 3.50378 24.2671 3.03776 24.0633 2.72708C23.9274 2.5142 23.8367 2.37612 23.7914 2.28982C23.6838 2.0712 23.6272 1.85257 23.6272 1.64545C23.6272 1.45559 23.7065 1.26573 24.6862 1.23697H24.9411V0.460266H18.168V1.2945C18.7003 1.30025 19.0741 1.42107 19.2779 1.63394C19.5441 2.01942 19.7876 2.37612 20.0198 2.69831C20.5691 3.48076 20.9995 4.10212 21.3393 4.70622C22.6588 6.76591 23.4403 8.39986 23.7971 9.19957V14.0324C23.7971 14.3488 23.7518 14.3833 23.6555 14.4639L23.6385 14.4869C23.6102 14.5272 23.429 14.6652 22.2964 14.7113V15.603H29.228V14.6997C28.5541 14.6825 28.2766 14.6365 28.0614 14.5674C27.8576 14.4984 27.7613 14.3776 27.7613 14.1819V10.2409C27.7613 9.44696 27.8123 8.89464 27.9029 8.60122C27.9935 8.31931 28.3219 7.51384 28.9109 6.50701C29.3809 5.66127 29.7377 4.99964 29.9756 4.54513C31.4876 1.66846 31.8161 1.53614 31.8331 1.53614L31.8727 1.51888C31.9803 1.43833 32.2861 1.32902 33.1469 1.26573V0.460266H33.1356Z" fill="white"/>
<path d="M75.7947 0.489014V1.21969H75.8796C75.9646 1.23119 76.0609 1.23695 76.1685 1.23695C76.7461 1.23695 77.6409 1.50735 77.7598 1.9331V9.99926C77.7541 12.6746 77.437 13.0313 76.865 13.6699L76.7461 13.8022C76.2647 14.3545 75.319 14.6537 74.0731 14.6537C73.0877 14.6537 72.2779 14.4006 71.6719 13.9058C71.1906 13.5145 70.8848 12.8644 70.7715 11.9727C70.7205 11.6677 70.6979 10.9371 70.6979 9.80365V1.97337C70.7205 1.81803 70.7659 1.70297 70.8168 1.62817C70.8791 1.53612 71.0773 1.42105 71.6323 1.40379C71.7682 1.40379 71.8022 1.39804 71.8418 1.39229C71.8645 1.39229 71.8871 1.38653 71.9381 1.38078H72.0287V0.489014H65.0801V1.25996C65.6577 1.26571 66.0825 1.31174 66.3373 1.39229C66.5298 1.44982 66.6431 1.60516 66.6884 1.85255V1.90433C66.6884 1.90433 66.6941 1.93885 66.6941 1.96187V10.2351C66.6941 12.1625 67.1131 13.5318 67.94 14.297C69.0613 15.3383 70.5903 15.6605 72.5497 15.8274C72.9178 15.8561 73.2973 15.8734 73.6654 15.8734C75.0755 15.8734 76.446 15.6605 77.3634 15.2808C79.1529 14.5329 79.9458 13.1233 79.9458 10.7012V1.94461C79.9741 1.65119 80.042 1.54187 80.0987 1.47283C80.178 1.38078 80.5574 1.26571 81.22 1.21969C81.2823 1.21969 81.3049 1.21393 81.3276 1.19667C81.3332 1.19667 81.3446 1.19667 81.3559 1.19667L81.4408 1.18517V0.489014H75.789H75.7947Z" fill="white"/>
<path d="M99.3937 0.373962H95.0727V1.12189C95.135 1.12189 95.1973 1.12189 95.3219 1.12189C95.707 1.12189 96.0864 1.24847 96.211 1.41531C96.228 1.48435 96.2336 1.59942 96.2336 1.76627V9.36066L87.6484 0.483276H82.4609V1.31175L82.948 1.35778L83.0216 1.36929C83.5313 1.57641 83.7238 1.7375 83.8937 1.95613C84.024 2.16325 84.1032 2.38763 84.1429 2.64077C84.1485 2.6868 84.1655 2.78461 84.1712 2.99748C84.1825 3.28515 84.1938 3.70514 84.1938 4.21143V13.3247C84.1825 13.434 84.1882 13.9691 84.1882 13.9691C84.1882 13.9748 84.1882 14.1704 84.0013 14.343L83.9503 14.3776C83.7465 14.4869 83.1915 14.5847 82.4609 14.6365V15.4304H87.1953V14.6825C87.133 14.6825 87.0707 14.6825 86.9518 14.6825C86.5667 14.6825 86.1873 14.5617 86.0627 14.3948C86.0457 14.3258 86.04 14.2107 86.04 14.0496V4.18266L96.9642 15.4477H97.9496V1.83531C97.9496 1.83531 97.9496 1.62819 98.1421 1.46134C98.1591 1.44983 98.1761 1.43833 98.1931 1.42682C98.3686 1.32901 98.6574 1.22545 99.405 1.16792V0.373962H99.3937Z" fill="white"/>
<path d="M17.1083 14.786C16.559 14.7458 16.1625 14.648 15.9303 14.4869C15.6642 14.3028 15.5566 13.8943 15.5566 13.0716V2.65804C15.5566 1.94462 15.6359 1.71449 15.7605 1.57066C15.8511 1.46134 16.1172 1.32327 16.8591 1.27149C16.9497 1.26573 17.029 1.25998 17.1026 1.24847V0.460266H10.4428V1.28875C10.5107 1.28875 10.59 1.28875 10.675 1.28875C11.4508 1.28875 11.8246 1.73175 11.8246 2.63502V6.67961C9.93311 6.76016 7.56026 6.77742 5.8953 6.71989L5.38562 6.68537V2.41064C5.38562 2.01366 5.43659 1.74326 5.53853 1.59942C5.60082 1.50737 5.79903 1.39231 6.35402 1.37505C6.51825 1.37505 6.6485 1.36354 6.76743 1.35778V0.460266H0V1.23121C0.571975 1.23697 0.996709 1.28299 1.25721 1.36354C1.50639 1.44408 1.63098 1.67422 1.63098 2.0827V13.6066C1.63098 14.1589 1.58567 14.4178 1.47807 14.4754C1.20624 14.625 0.713553 14.7055 0 14.717V15.5973H6.77875V14.7515C6.6485 14.7343 6.50126 14.717 6.31438 14.6997C5.71409 14.6307 5.40261 14.4466 5.38562 14.1417V8.2963H11.8303V13.7102C11.8133 14.0611 11.8019 14.1359 11.7849 14.2107V14.2452C11.7849 14.3373 11.6547 14.4351 11.4282 14.5214C11.162 14.625 10.8449 14.6825 10.4824 14.694C10.4824 14.694 10.4768 14.694 10.4711 14.694V15.5915H17.1139V14.7803L17.1083 14.786Z" fill="white"/>
<path d="M49.8912 7.83605C49.795 3.43476 45.7968 -0.0517576 40.9605 0.0575555C36.1299 0.161115 32.2903 3.82023 32.3865 8.22153C32.4885 12.6228 36.4866 16.1093 41.3173 16C46.1479 15.8965 49.9875 12.2431 49.8856 7.83605H49.8912ZM41.1417 14.4984C38.6839 14.4984 36.6905 11.5987 36.6905 8.02591C36.6905 4.4531 38.6839 1.55342 41.1417 1.55342C43.5995 1.55342 45.5929 4.4531 45.5929 8.02591C45.5929 11.5987 43.5995 14.4984 41.1417 14.4984Z" fill="white"/>
<path d="M110.125 8.59547V9.36066C110.703 9.36066 111.133 9.40669 111.4 9.48723C111.586 9.54477 111.654 9.64833 111.734 9.97627C111.751 10.2524 111.768 10.5631 111.779 10.8795V11.1384H111.785C111.796 11.5642 111.802 11.9899 111.802 12.3581C111.802 13.6354 110.895 14.1072 110.341 14.274C110.278 14.3028 110.012 14.3488 110.012 14.3488C109.955 14.3545 109.78 14.3661 109.757 14.3718C109.684 14.3776 109.225 14.3545 109.185 14.3488C108.693 14.3143 108.307 14.2567 107.922 14.0841C107.52 13.9115 107.186 13.6987 106.931 13.4513C105.606 12.3294 104.717 10.2409 104.717 7.85329C104.717 4.81553 106.155 2.27256 108.092 1.57066C108.273 1.50737 108.715 1.34052 109.31 1.24272C109.389 1.22546 109.468 1.22546 109.548 1.21395C111.354 1.02409 112.487 1.59367 113.127 2.10572C113.138 2.11722 113.155 2.12873 113.166 2.14024C113.178 2.14599 113.189 2.15174 113.212 2.18051L113.234 2.19777C113.869 2.7616 114.197 3.63035 114.293 4.01007C114.395 4.38979 114.429 4.53362 114.429 4.53362H114.797C114.865 4.55663 114.939 4.55088 115.007 4.54513H115.352V0.0978065H114.543V0.115067C114.435 0.149586 114.18 0.569579 114.18 0.569579C114.18 0.569579 114.027 0.834232 113.886 0.834232C113.755 0.834232 113.523 0.776699 113.2 0.673139C113.081 0.632866 112.968 0.598346 112.849 0.569579L112.776 0.552319C111.728 0.18986 110.714 0 109.757 0C107.045 0 104.474 0.828479 102.882 2.22654C101.189 3.70514 100.328 5.58648 100.328 7.81302C100.328 10.0396 101.285 12.3121 102.82 13.6239C104.372 14.9529 106.863 15.7411 109.48 15.7411C111.394 15.7411 113.546 15.137 115.528 14.0381L115.579 14.0093V12.5768C115.579 12.2086 115.579 11.6735 115.585 11.1557V10.9831C115.585 10.7184 115.596 10.4653 115.596 10.2524C115.619 10.0108 115.664 9.83243 115.743 9.73463C115.811 9.64257 116.009 9.53326 116.576 9.516C116.74 9.516 116.876 9.50449 116.995 9.49874V8.60698H110.12L110.125 8.59547Z" fill="white"/>
</g>
</mask>
<g mask="url(#mask0_2981_90139)">
<rect width="117" height="16" fill="white"/>
</g>
<defs>
<clipPath id="clip0_2981_90139">
<rect width="117" height="16" fill="white"/>
</clipPath>
</defs>
</svg>
