<svg width="200" height="35" viewBox="0 0 200 35" fill="none" xmlns="http://www.w3.org/2000/svg">
<g clip-path="url(#clip0_2242_2378)">
<path d="M144.709 25.6601L140.421 18.6613H136.486V25.6601H131.544V3.46222H140.446C146.06 3.46222 149.348 6.45992 149.348 11.0618C149.348 14.1152 147.91 16.4564 145.307 17.6827L150.433 25.6663H144.709V25.6601ZM136.486 14.2762H140.23C142.833 14.2762 144.413 13.1614 144.413 11.0618C144.413 8.96213 142.84 7.84728 140.23 7.84728H136.486V14.2762Z" fill="white"/>
<path d="M152.716 3.46222H156.837L167.879 16.8094V3.1897H172.82V25.3937H168.693L157.651 12.0465V25.6663H152.716V3.46222Z" fill="white"/>
<path d="M176.731 3.46222H180.661L188.285 15.8804L195.91 3.46222H199.846V25.6601H194.905V13.4835L189.778 22.012H186.793L181.666 13.4835V25.6601H176.731V3.46222Z" fill="white"/>
<path d="M36.3592 8.26845H29.8264V25.53H36.3592V8.26845Z" fill="white"/>
<path d="M19.037 8.26845V15.1186H6.5328V8.26845H0V25.53H6.5328V18.2525H19.037V25.53H25.5637V8.26845H19.037Z" fill="white"/>
<path d="M97.4368 11.4086V8.26845H73.7115V25.53H97.4368V22.3898H80.2443V18.3888H96.3018V15.261H80.2443V11.4086H97.4368Z" fill="white"/>
<path d="M120.305 8.26845V19.9558L107.517 8.26845H100.984V25.53H107.517V14.0842L120.305 25.53H126.838V8.26845H120.305Z" fill="white"/>
<path d="M58.3696 11.26H62.6322V19.677H46.877V5.98301H61.929V3.56132H44.4588V22.1049H65.0566V8.83826H58.3757V11.26H58.3696ZM69.3069 23.2384V8.83826H66.8949V23.2446H42.602V2.4217H61.9228V0H40.19V25.6601H69.3131V23.2384H69.3069Z" fill="white"/>
<path d="M134.721 34.8761L133.778 33.241H132.914V34.8761H131.828V29.6859H133.784C135.017 29.6859 135.739 30.3858 135.739 31.4635C135.739 32.1757 135.425 32.727 134.851 33.0119L135.98 34.8761H134.721ZM132.914 32.2129H133.734C134.308 32.2129 134.653 31.9528 134.653 31.4635C134.653 30.9742 134.308 30.714 133.734 30.714H132.914V32.2191V32.2129Z" fill="white"/>
<path d="M136.301 32.2748C136.301 30.7016 137.417 29.5496 138.929 29.5496C140.44 29.5496 141.556 30.7016 141.556 32.2748C141.556 33.848 140.44 35 138.929 35C137.417 35 136.301 33.848 136.301 32.2748ZM140.465 32.2748C140.465 31.2962 139.811 30.5964 138.922 30.5964C138.034 30.5964 137.38 31.2962 137.38 32.2748C137.38 33.2534 138.034 33.9533 138.922 33.9533C139.811 33.9533 140.465 33.2472 140.465 32.2748Z" fill="white"/>
<path d="M142.284 29.6859H144.394C145.474 29.6859 146.084 30.2867 146.084 31.2343C146.084 31.6059 145.85 32.0271 145.517 32.1571C145.979 32.3182 146.313 32.8013 146.313 33.303C146.313 34.263 145.671 34.8761 144.573 34.8761H142.284V29.6859ZM144.351 31.7855C144.764 31.7855 144.999 31.5935 144.999 31.2343C144.999 30.8751 144.758 30.6707 144.351 30.6707H143.37V31.7855H144.351ZM144.53 33.8852C144.962 33.8852 145.227 33.6808 145.227 33.2968C145.227 32.9128 144.955 32.7084 144.53 32.7084H143.37V33.879H144.53V33.8852Z" fill="white"/>
<path d="M146.825 32.2748C146.825 30.7016 147.941 29.5496 149.453 29.5496C150.964 29.5496 152.08 30.7016 152.08 32.2748C152.08 33.848 150.964 35 149.453 35C147.941 35 146.825 33.848 146.825 32.2748ZM150.989 32.2748C150.989 31.2962 150.335 30.5964 149.446 30.5964C148.558 30.5964 147.904 31.2962 147.904 32.2748C147.904 33.2534 148.558 33.9533 149.446 33.9533C150.335 33.9533 150.989 33.2472 150.989 32.2748Z" fill="white"/>
<path d="M156.559 30.7078H154.98V34.8761H153.894V30.7078H152.315V29.6797H156.565V30.7078H156.559Z" fill="white"/>
<path d="M158.996 29.6859H159.903L162.333 32.8075V29.624H163.419V34.8142H162.512L160.081 31.6926V34.8761H158.996V29.6859Z" fill="white"/>
<path d="M166.121 29.6859H166.984L168.662 32.5907L170.34 29.6859H171.204V34.8761H170.118V32.0271L168.989 34.0214H168.335L167.206 32.0271V34.8761H166.121V29.6859Z" fill="white"/>
<path d="M171.938 32.2748C171.938 30.7016 173.055 29.5496 174.566 29.5496C176.077 29.5496 177.194 30.7016 177.194 32.2748C177.194 33.848 176.077 35 174.566 35C173.055 35 171.938 33.848 171.938 32.2748ZM176.102 32.2748C176.102 31.2962 175.448 30.5964 174.56 30.5964C173.671 30.5964 173.018 31.2962 173.018 32.2748C173.018 33.2534 173.671 33.9533 174.56 33.9533C175.448 33.9533 176.102 33.2472 176.102 32.2748Z" fill="white"/>
<path d="M177.922 29.6859H180.031C181.111 29.6859 181.722 30.2867 181.722 31.2343C181.722 31.6059 181.487 32.0271 181.154 32.1571C181.617 32.3182 181.95 32.8013 181.95 33.303C181.95 34.263 181.308 34.8761 180.21 34.8761H177.922V29.6859ZM179.988 31.7855C180.402 31.7855 180.636 31.5935 180.636 31.2343C180.636 30.8751 180.395 30.6707 179.988 30.6707H179.007V31.7855H179.988ZM180.167 33.8852C180.599 33.8852 180.864 33.6808 180.864 33.2968C180.864 32.9128 180.593 32.7084 180.167 32.7084H179.007V33.879H180.167V33.8852Z" fill="white"/>
<path d="M183.764 29.6859V34.8761H182.678V29.6859H183.764Z" fill="white"/>
<path d="M185.799 29.6859V33.8542H188.23V34.8823H184.714V29.6921H185.799V29.6859Z" fill="white"/>
<path d="M189.951 29.6859V34.8761H188.865V29.6859H189.951Z" fill="white"/>
<path d="M194.874 30.7078H193.294V34.8761H192.209V30.7078H190.63V29.6797H194.88V30.7078H194.874Z" fill="white"/>
<path d="M198.18 33.2472V34.8761H197.095V33.2472L195.275 29.6859H196.515L197.687 32.1386L198.853 29.6859H200.006L198.186 33.2472H198.18Z" fill="white"/>
</g>
<defs>
<clipPath id="clip0_2242_2378">
<rect width="200" height="35" fill="white"/>
</clipPath>
</defs>
</svg>
